HIERARCHY
ROOT Hips
{
  OFFSET 0.000000 0.000000 0.000000
  CHANNELS 6 Xposition Yposition Zposition Zrotation Xrotation Yrotation
  JOINT RightUpLeg
  {
    OFFSET -6.216810 -9.097773 -0.230489
    CHANNELS 3 Zrotation Xrotation Yrotation
    JOINT RightLeg
    {
      OFFSET -14.997058 -35.907978 -3.166242
      CHANNELS 3 Zrotation Xrotation Yrotation
      JOINT RightFoot
      {
        OFFSET -6.766161 -32.825645 -27.262211
        CHANNELS 3 Zrotation Xrotation Yrotation
        JOINT RightToeBase
        {
          OFFSET -8.247897 -7.582372 9.175840
          CHANNELS 3 Zrotation Xrotation Yrotation
          End Site
          {
            OFFSET 0.000000 4.000000 0.000000
          }
        }
      }
    }
  }
  JOINT LeftUpLeg
  {
    OFFSET 6.141799 -8.479423 -0.410884
    CHANNELS 3 Zrotation Xrotation Yrotation
    JOINT LeftLeg
    {
      OFFSET 15.930682 -33.454235 12.724304
      CHANNELS 3 Zrotation Xrotation Yrotation
      JOINT LeftFoot
      {
        OFFSET 5.352481 -43.404800 2.619547
        CHANNELS 3 Zrotation Xrotation Yrotation
        JOINT LeftToeBase
        {
          OFFSET 8.343542 -2.230278 11.441862
          CHANNELS 3 Zrotation Xrotation Yrotation
          End Site
          {
            OFFSET 0.000000 4.000000 0.000000
          }
        }
      }
    }
  }
  JOINT Spine
  {
    OFFSET -0.172652 12.507564 -3.439741
    CHANNELS 3 Zrotation Xrotation Yrotation
    JOINT Spine1
    {
      OFFSET -0.045004 14.473534 2.780763
      CHANNELS 3 Zrotation Xrotation Yrotation
      JOINT Spine2
      {
        OFFSET 0.044821 4.327488 3.719895
        CHANNELS 3 Zrotation Xrotation Yrotation
        JOINT Neck
        {
          OFFSET -1.227592 21.598566 -0.320694
          CHANNELS 3 Zrotation Xrotation Yrotation
          JOINT Head
          {
            OFFSET -1.159585 5.167532 7.978178
            CHANNELS 3 Zrotation Xrotation Yrotation
            End Site
            {
              OFFSET 0.000000 4.000000 0.000000
            }
          }
        }
        JOINT RightShoulder
        {
          OFFSET -8.314901 11.360037 -0.850531
          CHANNELS 3 Zrotation Xrotation Yrotation
          JOINT RightArm
          {
            OFFSET -11.893396 -2.860069 2.128282
            CHANNELS 3 Zrotation Xrotation Yrotation
            JOINT RightForeArm
            {
              OFFSET -3.049576 -24.689257 4.139619
              CHANNELS 3 Zrotation Xrotation Yrotation
              JOINT RightHand
              {
                OFFSET 17.123085 -12.482464 17.030766
                CHANNELS 3 Zrotation Xrotation Yrotation
                End Site
                {
                  OFFSET 0.000000 4.000000 0.000000
                }
              }
            }
          }
        }
        JOINT LeftShoulder
        {
          OFFSET 6.441113 12.029802 -1.809842
          CHANNELS 3 Zrotation Xrotation Yrotation
          JOINT LeftArm
          {
            OFFSET 13.394785 -0.864720 0.309316
            CHANNELS 3 Zrotation Xrotation Yrotation
            JOINT LeftForeArm
            {
              OFFSET 8.888775 -23.608517 0.580557
              CHANNELS 3 Zrotation Xrotation Yrotation
              JOINT LeftHand
              {
                OFFSET -4.552157 -12.490993 19.046724
                CHANNELS 3 Zrotation Xrotation Yrotation
                End Site
                {
                  OFFSET 0.000000 4.000000 0.000000
                }
              }
            }
          }
        }
      }
    }
  }
}
MOTION
Frames: 7
Frame Time: 0.050000
0.000000 0.000000 0.000000 -0.000000 0.000000 0.000000 -0.000000 0.000000 0.000000 -0.000000 0.000000 0.000000 -0.000000 0.000000 0.000000 -0.000000 0.000000 0.000000 -0.000000 0.000000 0.000000 -0.000000 0.000000 0.000000 -0.000000 0.000000 0.000000 -0.000000 0.000000 0.000000 -0.000000 0.000000 0.000000 -0.000000 0.000000 0.000000 -0.000000 0.000000 0.000000 -0.000000 0.000000 0.000000 -0.000000 0.000000 0.000000 -0.000000 0.000000 0.000000 -0.000000 0.000000 0.000000 -0.000000 0.000000 0.000000 -0.000000 0.000000 0.000000 -0.000000 0.000000 0.000000 -0.000000 0.000000 0.000000 -0.000000 0.000000 0.000000 -0.000000 0.000000 0.000000
-4.660284 -0.604695 -3.514486 -0.284493 -0.928151 -0.093152 0.743148 1.020073 0.002105 0.944641 -2.370307 -0.598322 -0.241040 -1.275553 5.836077 -0.823433 3.641267 -5.085150 1.513138 0.463320 0.317206 1.101528 -2.737536 -0.444912 -1.469326 2.455271 1.939050 -0.861368 0.763864 -1.658962 1.102030 0.324480 -0.079622 0.184875 -0.219940 -0.698294 1.032597 0.334452 0.846678 -1.321908 -1.328151 -1.543376 -0.767465 1.814604 1.568206 -0.348135 1.149176 -1.530061 -2.934670 0.348222 1.160621 0.523524 -0.563858 0.050348 0.715474 -0.497318 0.292838 -0.783615 0.468231 -0.127296 -1.423099 1.238907 0.575886 0.339100 -0.358060 -0.483925 -0.177174 -0.848327 0.037251
-8.855754 -1.134324 -7.083778 -0.519636 -1.315998 -0.166526 1.887325 0.422981 0.389554 1.593443 -2.553402 -2.016485 -4.438205 -5.433157 8.659369 2.684025 8.472347 -6.978719 2.655628 0.358358 0.472889 2.039586 -4.792863 -0.644995 -2.145062 3.223445 1.592986 -2.032630 2.545786 -1.047221 2.203766 1.147753 -0.206449 0.562476 -0.339974 -1.603955 1.185268 0.153611 1.953486 -2.371987 -2.298342 -2.330069 -1.175408 2.657006 2.358998 -0.647869 1.653018 -3.573038 -4.077559 0.164042 3.039404 0.732552 -1.450954 -0.051174 0.552379 -0.200862 0.474815 -1.401818 0.325228 -0.412908 -2.017421 1.448717 0.906662 -0.746440 0.326692 -2.285927 0.773887 -1.680431 1.768531
-12.786311 -1.466388 -10.641356 -0.275942 -0.816626 -0.088956 2.838474 -2.905195 1.479763 3.719696 -1.882148 -5.711324 -9.553705 -7.956269 12.399167 5.628926 12.034135 -8.428558 1.777379 -0.443710 0.049948 3.933073 -6.569623 -0.336547 -1.442599 3.194430 3.028954 -3.815274 4.791270 -2.248737 3.239984 2.468720 -0.563174 0.673230 -2.138986 -2.475657 1.116822 1.754916 3.179902 -1.826822 -3.175307 -5.266268 -3.173066 1.704432 5.238416 -0.889987 0.701744 -6.038327 -5.010986 0.415732 5.250896 -3.343316 -0.090246 -1.933954 4.469710 -2.569628 2.468151 -2.494319 -1.453366 -2.608672 -4.118687 0.418600 2.567670 -1.757947 4.979881 -7.693461 4.213018 -4.784488 7.935316
-16.021734 -0.755674 -13.599139 -0.514549 -0.817007 -0.156159 4.123307 -3.971735 1.966853 3.798249 -1.717630 -6.957362 -9.692253 -7.776489 14.810259 5.145747 12.562479 -9.824706 0.329631 -2.255702 -1.375562 4.376289 -3.462821 0.964346 -0.044496 1.768714 2.448856 -3.910515 5.009334 -1.769531 4.534255 3.301288 -0.758204 0.691800 -2.334727 -3.151232 0.971535 1.893839 4.131582 -1.657328 -3.532250 -6.922520 -4.294255 1.083184 6.865993 -0.852469 0.398441 -7.800658 -6.659377 0.937974 6.639171 -5.584029 0.585760 -3.076640 7.445985 -4.316388 3.970205 -3.751794 -2.341531 -4.518470 -4.266871 0.247111 4.322404 -2.689847 7.518521 -10.866659 6.286296 -6.591099 11.538235
-18.681517 0.274003 -16.132359 -0.761977 -0.781644 -0.225142 5.295614 -4.834903 2.377468 3.711968 -2.397379 -7.715822 -9.988751 -6.440054 16.232841 4.698326 12.647364 -10.497758 -1.805369 -4.014088 -3.104148 4.175450 2.357418 2.804436 0.968091 -0.824798 0.792184 -2.654850 3.519576 -0.489463 5.997476 4.273747 -1.007712 0.405241 -2.166928 -3.680973 0.878463 1.562369 4.973170 -1.452592 -3.720622 -8.334051 -5.254443 0.196125 8.219959 -1.043547 -0.119304 -9.147013 -8.134368 2.002885 7.577952 -7.029962 0.587258 -3.592687 9.714359 -5.823732 4.875320 -4.489938 -3.344695 -6.666876 -4.653273 -0.271644 6.183911 -4.274460 9.935876 -14.528881 9.048763 -7.498834 15.915698
-20.910345 1.343924 -18.259378 -1.086046 -0.657059 -0.313529 6.966453 -5.501747 2.685316 2.985413 -3.910192 -7.934423 -10.410975 -4.110313 16.935407 4.246791 12.398269 -10.665790 -4.558786 -5.504657 -5.037613 3.220588 9.440248 5.338504 2.115797 -3.858050 -0.826307 -0.516699 0.867121 0.632296 7.521506 4.996952 -1.234755 0.140468 -2.655595 -4.190229 0.675488 1.802425 5.767737 -1.318354 -4.104169 -9.626633 -6.107924 -0.276524 9.489745 -1.568667 -0.417849 -10.668426 -9.447680 3.234182 8.665761 -8.243065 0.603015 -3.643961 11.909649 -7.587819 5.408455 -4.719936 -4.127032 -8.400102 -5.374844 -0.905460 7.638590 -5.679477 12.450636 -17.794954 11.664739 -8.220652 20.021002
